<?xml version="1.0" encoding="UTF-8" standalone="no"?>
<svg
   xmlns:dc="http://purl.org/dc/elements/1.1/"
   xmlns:cc="http://creativecommons.org/ns#"
   xmlns:rdf="http://www.w3.org/1999/02/22-rdf-syntax-ns#"
   xmlns:svg="http://www.w3.org/2000/svg"
   xmlns="http://www.w3.org/2000/svg"
   xmlns:sodipodi="http://sodipodi.sourceforge.net/DTD/sodipodi-0.dtd"
   xmlns:inkscape="http://www.inkscape.org/namespaces/inkscape"
   width="1316.9459"
   height="328.0285"
   viewBox="0 0 1316.9459 328.0285"
   version="1.1"
   xml:space="preserve"
   style="clip-rule:evenodd;fill-rule:evenodd;stroke-linejoin:round;stroke-miterlimit:1.41420996"
   id="svg5"
   sodipodi:docname="audius.logo.white.svg"
   inkscape:version="0.92.1 r15371"><metadata
     id="metadata11"><rdf:RDF><cc:Work
         rdf:about=""><dc:format>image/svg+xml</dc:format><dc:type
           rdf:resource="http://purl.org/dc/dcmitype/StillImage" /><dc:title></dc:title></cc:Work></rdf:RDF></metadata><defs
     id="defs9" /><sodipodi:namedview
     pagecolor="#ffffff"
     bordercolor="#666666"
     borderopacity="1"
     objecttolerance="10"
     gridtolerance="10"
     guidetolerance="10"
     inkscape:pageopacity="0"
     inkscape:pageshadow="2"
     inkscape:window-width="3200"
     inkscape:window-height="1745"
     id="namedview7"
     showgrid="false"
     fit-margin-top="0"
     fit-margin-left="0"
     fit-margin-right="0"
     fit-margin-bottom="0"
     inkscape:zoom="0.50068399"
     inkscape:cx="690.18669"
     inkscape:cy="173.43907"
     inkscape:window-x="0"
     inkscape:window-y="55"
     inkscape:window-maximized="1"
     inkscape:current-layer="svg5" /><g
     id="g3241.2e..-2.2e..-3"
     transform="matrix(1.99993,0,0,1.99993,-1019.5923,-4555.5006)"
     style="fill:#ffffff"><path
       d="m 759.314,2407.14 c -7.796,5.81 -13.447,7.6 -15.396,8.57 -3.739,1.85 -16.085,4.83 -20.648,4.77 -2.266,5.26 -7.834,18.28 -7.834,18.42 l -15.081,-0.12 8.59,-19.55 c -16.915,-2.39 -31.535,-5.72 -46.505,-12.18 -5.535,-2.39 -13.086,-6.94 -18.202,-9.71 -4.752,5.48 -9.905,10.89 -15.46,16.22 -5.556,5.27 -11.513,10.02 -17.872,14.26 -6.36,4.16 -13.121,7.53 -20.284,10.09 -7.091,2.63 -14.583,3.94 -22.477,3.94 -7.018,0 -14.035,-1.06 -21.052,-3.18 -6.944,-2.04 -13.194,-5.04 -18.749,-8.99 -5.482,-4.02 -9.941,-8.88 -13.377,-14.58 -3.435,-5.78 -5.153,-12.32 -5.153,-19.63 0,-5.77 1.096,-10.85 3.289,-15.24 2.12,-4.38 5.044,-8.04 8.772,-10.96 3.801,-2.93 8.223,-5.12 13.267,-6.58 5.117,-1.54 10.599,-2.3 16.446,-2.3 4.459,0 9.064,0.44 13.816,1.31 4.824,0.88 9.502,2.34 14.034,4.39 4.532,2.05 8.808,4.75 12.828,8.11 4.021,3.36 8.297,9.78 9.503,14.07 l -3.614,1.67 c -0.073,-0.15 -0.918,-0.86 -1.722,-1.81 -0.731,-1.03 -1.864,-2.23 -3.399,-3.62 -1.462,-1.46 -3.363,-3 -5.702,-4.61 -2.339,-1.6 -5.153,-3.07 -8.442,-4.38 -3.216,-1.39 -6.981,-2.52 -11.294,-3.4 -4.239,-0.95 -9.063,-1.43 -14.473,-1.43 -5.482,0 -10.27,0.95 -14.363,2.85 -4.093,1.83 -7.529,4.21 -10.306,7.13 -2.705,2.85 -4.752,6.07 -6.141,9.65 -1.315,3.58 -1.973,7.05 -1.973,10.42 0,3.94 0.694,7.56 2.083,10.85 1.389,3.22 3.253,6.14 5.592,8.77 2.412,2.63 5.19,4.94 8.333,6.91 3.216,1.9 6.579,3.51 10.087,4.82 3.582,1.32 7.2,2.31 10.855,2.96 3.728,0.66 7.346,0.99 10.855,0.99 7.236,0 14.18,-1.17 20.832,-3.51 6.652,-2.41 12.938,-5.55 18.859,-9.43 5.921,-3.94 11.476,-8.4 16.666,-13.37 5.263,-4.97 10.123,-10.05 14.582,-15.24 -4.97,-3 -9.575,-6.22 -13.815,-9.65 -4.166,-3.51 -7.785,-7.24 -10.855,-11.19 -3.07,-4.02 -5.482,-8.29 -7.236,-12.82 -1.681,-4.61 -2.522,-9.47 -2.522,-14.59 0,-4.24 0.768,-8.22 2.303,-11.95 1.608,-3.73 3.764,-6.98 6.469,-9.76 2.777,-2.85 6.03,-5.08 9.758,-6.68 3.801,-1.69 7.858,-2.53 12.17,-2.53 4.825,0 9.393,0.77 13.706,2.3 4.313,1.47 8.406,3.51 12.28,6.14 3.874,2.56 7.492,5.63 10.855,9.22 3.435,3.58 6.652,7.45 9.648,11.62 8.187,-9.14 16.337,-17.73 24.451,-25.77 8.187,-8.11 16.045,-15.2 23.574,-21.27 7.528,-6.07 14.619,-10.85 21.27,-14.36 6.725,-3.58 12.792,-5.37 18.201,-5.37 2.12,0 4.167,0.36 6.14,1.09 2.047,0.66 3.838,1.65 5.373,2.96 1.608,1.24 2.887,2.82 3.838,4.72 0.95,1.82 1.425,3.91 1.425,6.25 0,4.53 -1.462,9.68 -4.386,15.46 -2.924,5.77 -6.725,12.53 -11.403,20.28 -5.043,8.26 -9.795,16.52 -14.254,24.78 -4.458,8.19 -8.625,16.12 -12.499,23.79 -3.801,7.6 -7.31,14.8 -10.526,21.6 -3.143,6.73 -4.554,9.31 -6.893,14.65 4.054,0.14 10.238,-1.23 15.278,-3.86 11.336,-5.92 23.444,-14.96 30.804,-25.55 6.627,-9.54 16.452,-22.23 23.956,-29.16 h 10.832 c -4.929,4.82 -14.137,17.95 -17.589,22.73 -3.379,4.79 -6.618,9.76 -9.717,14.92 -3.023,5.1 -5.61,10.24 -7.759,15.43 -2.147,5.12 -3.295,9.91 -3.445,14.37 -0.101,2.99 0.361,5.57 1.386,7.72 1.097,2.16 3.253,3.29 6.468,3.4 3.506,0.12 7.388,-1.14 11.646,-3.78 4.33,-2.63 8.762,-6.1 13.295,-10.41 4.606,-4.31 9.194,-9.16 13.764,-14.57 4.646,-5.47 9.037,-10.99 13.173,-16.56 4.137,-5.56 7.9,-10.89 11.288,-15.97 3.462,-5.07 8.966,-13.7 11.135,-17.28 l 10.433,-0.06 c -4.518,8.19 -14.125,24.4 -18.313,31.5 -4.113,7.03 -7.8,13.38 -11.063,19.04 -3.187,5.6 -5.764,10.49 -7.733,14.66 -1.896,4.18 -2.886,7.51 -2.969,10 -0.035,1.02 0.156,1.87 0.573,2.54 0.416,0.67 1.099,1.02 2.048,1.06 2.701,0.16 5.699,-0.91 8.994,-3.21 3.369,-2.3 6.758,-5.23 10.169,-8.77 3.483,-3.54 6.868,-7.41 10.154,-11.61 3.362,-4.28 10.828,-18.17 18.994,-29.43 3.019,-4.16 6.646,-8 10.526,-11.28 3.957,-3.34 8.022,-6.1 12.196,-8.29 4.178,-2.25 8.318,-3.94 12.421,-5.04 4.175,-1.11 8.05,-1.54 11.624,-1.31 4.741,0.31 8.318,1.38 11.038,2.57 3.127,1.37 6.893,4.54 6.893,4.54 0,0 14.323,-23.3 25.196,-37.4 8.558,-11.11 21.861,-28.28 26.04,-32.8 l 11.914,-0.1 c -0.883,1.17 -20.709,27.51 -27.793,37.56 -6.6,9.35 -17.842,26.04 -24.874,37.94 -6.454,10.93 -12.368,20.53 -17.392,33.46 -3.907,10.06 -4.841,17.3 -4.665,20.14 0.271,4.35 1.627,7.2 2.756,8.96 1.201,1.77 2.896,2.72 5.084,2.87 2.261,0.15 4.453,-0.32 6.576,-1.41 2.196,-1.08 4.306,-2.52 6.329,-4.3 2.095,-1.78 3.97,-3.91 5.902,-6.17 7.96,-9.31 22.345,-28.69 24.068,-30.96 19.205,-25.32 27.613,-33.99 31.463,-36.6 l 4.62,2.43 c -1.4,2.66 -6.71,10 -9.48,13.54 -2.973,3.82 -11.115,15.61 -15.419,22.93 -8.022,13.66 -10.492,19.92 -11.91,24.38 -1.259,3.96 -1.039,7.05 -0.723,9.59 0.279,2.25 1.036,3.91 2.117,4.77 1.082,0.78 2.615,1.18 4.598,1.18 3.697,0 7.303,-1.06 10.819,-3.17 3.516,-2.11 6.987,-4.85 10.418,-8.21 3.51,-3.45 6.94,-7.35 10.27,-11.74 3.34,-4.38 13.46,-18.95 15.45,-21.73 6.36,-8.88 17.7,-24.35 26.05,-32.07 h 10.83 c -4.92,4.82 -14.13,17.95 -17.58,22.73 -3.38,4.79 -6.62,9.76 -9.72,14.92 -3.02,5.1 -5.61,10.24 -7.76,15.43 -2.15,5.12 -3.3,9.91 -3.45,14.37 -0.1,2.99 0.37,5.57 1.39,7.72 1.1,2.16 3.25,3.29 6.47,3.4 3.51,0.12 7.39,-1.14 11.64,-3.78 4.33,-2.63 8.77,-6.1 13.3,-10.41 4.61,-4.31 9.19,-9.16 13.76,-14.57 4.65,-5.47 9.04,-10.99 13.18,-16.56 4.13,-5.56 7.9,-10.89 11.28,-15.97 3.47,-5.07 8.97,-13.7 11.14,-17.28 l 10.53,-0.1 c -4.52,8.19 -14.22,24.44 -18.41,31.54 -4.11,7.03 -7.8,13.38 -11.06,19.04 -3.19,5.6 -5.77,10.49 -7.74,14.66 -1.89,4.18 -2.88,7.51 -2.97,10 -0.03,1.02 0.16,1.87 0.58,2.54 0.41,0.67 1.1,1.02 2.05,1.06 2.7,0.16 5.69,-0.91 8.99,-3.21 3.37,-2.3 7.03,-5.58 10.17,-8.77 15.07,-15.29 30.94,-34 40.77,-48.27 3.56,-5.16 5.2,-8.15 7.95,-12.13 5.74,-8.32 8.88,-14.74 12.01,-16.78 l 4.67,3.62 c -0.39,0.66 -0.9,1.39 -1.52,2.19 -0.62,0.73 -1.24,1.61 -1.86,2.64 -0.55,0.95 -1.05,2.08 -1.52,3.39 -0.39,1.32 -0.58,2.89 -0.58,4.72 0,1.53 0.39,3.62 1.16,6.25 0.86,2.63 1.75,5.66 2.69,9.1 0.93,3.36 1.79,7.05 2.56,11.07 0.86,3.95 1.29,8.04 1.29,12.28 0,6.22 -0.9,11.7 -2.69,16.45 -1.79,4.75 -3.9,8.74 -7.11,12.17 -4.33,4.64 -11.64,10.96 -20.77,10.96 -5.83,0 -10.73,-1.31 -14.7,-3.94 -4.04,-2.56 -6.53,-6.43 -7.46,-11.62 l 4.2,-0.77 c 0,0.44 0.23,1.17 0.7,2.19 0.39,0.95 1.05,1.9 1.98,2.85 0.93,0.95 2.22,1.79 3.85,2.52 1.56,0.73 3.5,1.1 5.83,1.1 3.11,0 5.87,-0.66 8.28,-1.97 2.42,-1.39 4.52,-3.18 6.31,-5.38 1.78,-2.19 3.3,-4.67 4.54,-7.45 1.25,-2.85 2.22,-5.78 2.92,-8.77 0.78,-3 1.32,-5.92 1.63,-8.78 0.31,-2.85 0.47,-5.44 0.47,-7.78 0,-2.34 -0.12,-4.93 -0.35,-7.78 -0.15,-2.86 -0.35,-5.56 -0.58,-8.12 -0.24,-2.63 -0.47,-4.9 -0.7,-6.8 -0.16,-1.97 -0.24,-3.25 -0.24,-3.83 v -0.22 c -1.01,1.02 -6.53,8.62 -8.16,10.96 -12.28,17.63 -25.52,33.52 -38.13,46.51 -2.83,2.92 -5.61,5.99 -8.63,8.6 -3.01,2.53 -6.11,4.62 -9.31,6.27 -3.2,1.57 -6.33,2.31 -9.4,2.21 -1.9,-0.07 -3.61,-0.46 -5.12,-1.16 -1.44,-0.71 -2.65,-1.63 -3.64,-2.76 -0.98,-1.13 -1.74,-2.44 -2.28,-3.92 -0.54,-1.48 -0.78,-3.02 -0.72,-4.63 0.06,-1.9 0.42,-3.97 1.09,-6.21 0.73,-2.25 1.72,-4.63 2.98,-7.15 -3.49,3.84 -6.94,7.38 -10.34,10.63 -3.4,3.18 -6.78,5.91 -10.15,8.21 -3.29,2.23 -6.57,3.95 -9.83,5.16 -3.26,1.28 -6.53,1.86 -9.82,1.75 -2.78,-0.09 -5.28,-0.69 -7.51,-1.79 -2.16,-1.02 -4.02,-2.44 -5.56,-4.24 -1.62,-1.89 -2.83,-4.12 -3.62,-6.71 -0.79,-2.66 -1.13,-5.59 -1.02,-8.81 0.02,-0.56 0.05,-1.12 0.1,-1.69 -2.4,3.03 -5,5.92 -7.78,8.66 -4.06,3.91 -8.521,7.16 -13.389,9.74 -4.869,2.58 -10.188,3.87 -15.958,3.87 -5.409,0 -9.556,-1.41 -12.441,-4.23 -2.885,-2.81 -4.327,-6.45 -4.327,-10.91 0,-2.17 0.241,-4.39 0.724,-6.65 -2.276,2.87 -4.636,5.81 -6.901,8.57 -2.147,2.55 -4.496,4.85 -7.05,6.9 -2.481,2.07 -5.228,3.73 -8.241,4.99 -2.936,1.18 -6.081,1.67 -9.436,1.44 -1.605,-0.1 -3.303,-0.44 -5.097,-1.02 -1.72,-0.58 -3.308,-1.49 -4.764,-2.74 -1.455,-1.24 -2.701,-2.9 -3.737,-4.96 -1.03,-2.15 -1.624,-4.79 -1.781,-7.95 -5.88,5.83 -11.515,10.18 -16.906,13.04 -5.386,2.79 -10.376,4.04 -14.971,3.73 -2.334,-0.15 -4.896,-0.74 -7.685,-1.77 -2.716,-1.03 -5.245,-2.65 -7.589,-4.88 -2.343,-2.23 -4.242,-5.08 -5.697,-8.55 -2.912,-7.13 -1.581,-14.16 -1.518,-14.79 -1.394,2.14 -2.604,3.95 -3.233,4.78 -2.144,2.86 -4.585,5.85 -7.323,8.97 -2.738,3.13 -5.613,5.99 -8.626,8.6 -3.011,2.53 -6.117,4.62 -9.317,6.27 -3.198,1.57 -6.331,2.31 -9.399,2.21 -1.899,-0.07 -3.605,-0.46 -5.117,-1.16 -1.439,-0.71 -2.652,-1.63 -3.638,-2.76 -0.986,-1.13 -1.746,-2.44 -2.281,-3.92 -0.536,-1.48 -0.776,-3.02 -0.722,-4.63 0.063,-1.9 0.426,-3.97 1.086,-6.21 0.734,-2.25 1.728,-4.63 2.983,-7.15 -3.493,3.84 -6.94,7.38 -10.34,10.63 -3.398,3.18 -6.782,5.91 -10.15,8.21 -3.293,2.23 -6.569,3.95 -9.828,5.16 -3.261,1.28 -6.535,1.86 -9.822,1.75 -2.777,-0.09 -5.28,-0.69 -7.51,-1.79 -2.16,-1.02 -4.014,-2.44 -5.562,-4.24 -1.619,-1.89 -2.824,-4.12 -3.614,-6.71 -0.788,-2.66 -1.129,-5.59 -1.021,-8.81 0.116,-3.44 0.764,-6.94 1.942,-10.49 z m 155.201,5.79 c 0,0 1.001,-6.79 5.415,-17.92 3.535,-8.92 13.465,-27.15 13.465,-27.15 0,0 -2.837,-3.46 -5.143,-4.41 -1.891,-0.79 -3.811,-1.64 -6.145,-1.79 -3.574,-0.24 -7.272,0.29 -11.092,1.57 -3.748,1.28 -7.422,3.11 -11.022,5.49 -3.527,2.37 -6.905,5.26 -10.133,8.65 -3.223,3.32 -6.099,6.93 -8.628,10.83 -2.456,3.91 -4.487,8.03 -6.093,12.38 -1.528,4.27 -2.433,8.55 -2.717,12.83 -0.379,5.73 0.456,10.28 2.505,13.64 2.121,3.36 5.115,5.17 8.981,5.43 1.823,0.12 3.854,-0.13 6.093,-0.75 2.238,-0.62 4.69,-1.69 7.354,-3.2 2.742,-1.58 5.624,-3.62 8.645,-6.11 3.026,-2.56 5.488,-5.16 8.515,-9.49 z m -206.118,0.16 c -1.023,-3.29 -7.876,-20.72 -10.215,-26.06 -2.266,-5.41 -4.86,-10.93 -7.784,-16.56 -2.851,-5.62 -5.994,-11 -9.43,-16.11 -5.043,5.7 -10.27,11.69 -15.679,17.98 -5.409,6.28 -11.037,12.97 -16.885,20.06 5.117,2.85 11.813,7.24 18.203,9.83 12.867,5.21 25.697,8.51 41.79,10.86 z m -23.153,-63.45 c 3.436,5.26 6.579,10.71 9.43,16.34 2.851,5.63 5.409,11.15 7.675,16.55 2.339,5.41 9.557,23.65 10.872,27.38 8.553,-18.64 17.672,-36 27.394,-53.91 9.721,-17.91 20.649,-35.6 32.783,-53.07 1.974,-2.92 3.363,-5.33 4.167,-7.23 0.877,-1.98 1.315,-3.66 1.315,-5.05 0,-2.34 -0.986,-4.09 -2.96,-5.26 -1.974,-1.24 -4.24,-1.86 -6.798,-1.86 -8.114,0 -19.188,5.55 -33.222,16.66 -13.961,11.04 -30.847,27.52 -50.656,49.45 z m -70.61,1.87 c 0,3.87 0.731,7.56 2.193,11.07 1.461,3.43 3.472,6.76 6.03,9.98 2.558,3.14 5.592,6.14 9.1,8.99 3.509,2.78 7.31,5.41 11.403,7.89 5.483,-6.65 11.074,-13.34 16.776,-20.06 5.701,-6.73 11.476,-13.38 17.324,-19.96 -2.559,-3.36 -5.227,-6.47 -8.004,-9.32 -2.705,-2.92 -5.556,-5.44 -8.553,-7.56 -2.996,-2.12 -6.103,-3.77 -9.319,-4.94 -3.217,-1.17 -6.542,-1.75 -9.978,-1.75 -3.874,0 -7.456,0.66 -10.745,1.97 -3.289,1.32 -6.14,3.15 -8.552,5.48 -2.412,2.27 -4.313,4.98 -5.702,8.12 -1.315,3.07 -1.973,6.43 -1.973,10.09 z m 419.536,-29.08 c 2.9,2.44 2.75,7.2 -0.84,11.48 -3.59,4.28 -10.34,7.07 -13.25,4.63 -2.91,-2.44 -0.87,-9.19 2.72,-13.46 3.59,-4.28 8.46,-5.09 11.37,-2.65 z"
       style="fill:#ffffff"
       id="path2"
       inkscape:connector-curvature="0" /></g></svg>