<?xml version="1.0" encoding="UTF-8" standalone="no"?>
<!-- Created with Inkscape (http://www.inkscape.org/) -->

<svg
   xmlns:dc="http://purl.org/dc/elements/1.1/"
   xmlns:cc="http://creativecommons.org/ns#"
   xmlns:rdf="http://www.w3.org/1999/02/22-rdf-syntax-ns#"
   xmlns:svg="http://www.w3.org/2000/svg"
   xmlns="http://www.w3.org/2000/svg"
   xmlns:sodipodi="http://sodipodi.sourceforge.net/DTD/sodipodi-0.dtd"
   xmlns:inkscape="http://www.inkscape.org/namespaces/inkscape"
   height="46.292175mm"
   width="185.72568mm"
   viewBox="0 0 658.08311 164.02739"
   id="svg3301"
   version="1.1"
   inkscape:version="0.91 r13725"
   sodipodi:docname="audius.logo.white.svg">
  <defs
     id="defs3307" />
  <sodipodi:namedview
     pagecolor="#ffffff"
     bordercolor="#666666"
     borderopacity="1"
     objecttolerance="10"
     gridtolerance="10"
     guidetolerance="10"
     inkscape:pageopacity="0"
     inkscape:pageshadow="2"
     inkscape:window-width="3200"
     inkscape:window-height="1745"
     id="namedview3305"
     showgrid="false"
     fit-margin-top="0"
     fit-margin-left="0"
     fit-margin-right="0"
     fit-margin-bottom="0"
     inkscape:zoom="3.5881182"
     inkscape:cx="186.92174"
     inkscape:cy="122.22396"
     inkscape:window-x="0"
     inkscape:window-y="55"
     inkscape:window-maximized="1"
     inkscape:current-layer="svg3301" />
  <metadata
     id="metadata3303">
    <rdf:RDF>
      <cc:Work
         rdf:about="">
        <dc:format>image/svg+xml</dc:format>
        <dc:type
           rdf:resource="http://purl.org/dc/dcmitype/StillImage" />
        <dc:title></dc:title>
      </cc:Work>
    </rdf:RDF>
  </metadata>
  <g
     transform="translate(-66.535864,-139.85481)"
     id="g3241">
    <g
       style="font-style:normal;font-variant:normal;font-stretch:normal;font-size:224.5508728px;line-height:1000%;font-family:Roboto;-inkscape-font-specification:'Roboto Semi-Light';text-align:start;letter-spacing:0px;word-spacing:507.73449707px;writing-mode:lr-tb;text-anchor:start;fill:#ffffff;fill-opacity:1;stroke:none;stroke-width:1px;stroke-linecap:butt;stroke-linejoin:miter;stroke-opacity:1"
       id="text3195">
      <path
         d="m 326.06317,139.85481 q 3.17967,0 6.14006,1.09644 3.07003,0.98679 5.37255,2.96039 2.41217,1.86394 3.83754,4.71469 1.42538,2.7411 1.42538,6.2497 0,6.79793 -4.38576,15.4598 -4.38576,8.66188 -11.40298,20.28414 -7.56543,12.38977 -14.25371,24.77954 -6.68829,12.28013 -12.49942,23.79274 -5.70149,11.40298 -10.52582,21.59987 -4.71469,10.08725 -8.2233,18.09126 4.38576,0.54822 8.77152,0.87715 4.38576,0.32893 7.89437,0.21929 l 0.21928,5.70148 q -0.7675,0 -5.81113,0 -4.93398,-0.10964 -13.48621,-1.31572 -3.39896,7.89436 -5.26291,12.28012 -1.7543,4.38576 -1.7543,4.60505 l -13.04764,-4.05683 6.57864,-15.02122 q -7.34614,-1.64466 -15.4598,-3.83754 -8.11365,-2.19288 -16.55624,-4.93398 -8.33294,-2.85075 -16.66588,-6.35935 -8.33295,-3.50861 -16.00803,-7.67508 -7.12685,8.2233 -15.4598,16.22731 -8.33294,7.89436 -17.87197,14.25371 -9.53902,6.24971 -20.28413,10.08725 -10.63547,3.94718 -22.47702,3.94718 -10.52582,0 -21.05164,-3.17967 -10.416181,-3.07003 -18.749123,-8.99081 -8.223299,-6.03042 -13.376566,-14.58265 -5.153267,-8.66187 -5.153267,-19.62627 0,-8.66187 3.289319,-15.24051 3.179676,-6.57864 8.771519,-10.9644 5.701487,-4.38576 13.266922,-6.57864 7.675078,-2.30252 16.446596,-2.30252 6.68828,0 13.81514,1.31572 7.23651,1.31573 14.03443,4.38576 6.79793,3.07003 12.82835,8.11366 6.03042,5.04362 10.30653,12.49941 l -4.82433,3.07003 q -0.10965,-0.21929 -1.31573,-1.64466 -1.09644,-1.53501 -3.39896,-3.61825 -2.19288,-2.19288 -5.70149,-4.60505 -3.50861,-2.41216 -8.44259,-4.38575 -4.82433,-2.08324 -11.29333,-3.39897 -6.35935,-1.42537 -14.473,-1.42537 -8.2233,0 -14.363365,2.85074 -6.140063,2.7411 -10.306534,7.12686 -4.056828,4.27612 -6.140063,9.64867 -1.973592,5.37256 -1.973592,10.41618 0,5.92078 2.083236,10.85475 2.083235,4.82434 5.591843,8.77152 3.618251,3.94719 8.332942,6.90757 4.824336,2.85075 10.087243,4.82434 5.37256,1.97359 10.85476,2.96039 5.59184,0.98679 10.85475,0.98679 10.85476,0 20.83236,-3.5086 9.9776,-3.61826 18.85876,-9.42939 8.88117,-5.92077 16.66589,-13.37656 7.89436,-7.45579 14.58265,-15.24052 -7.45579,-4.4954 -13.81514,-9.64867 -6.24971,-5.26291 -10.85476,-11.18368 -4.60505,-6.03042 -7.2365,-12.82835 -2.52181,-6.90757 -2.52181,-14.58265 0,-6.35935 2.30252,-11.95119 2.41217,-5.59184 6.469,-9.75832 4.16647,-4.27611 9.75831,-6.68828 5.70149,-2.52181 12.17048,-2.52181 7.2365,0 13.7055,2.30252 6.46899,2.19288 12.28013,6.14007 5.81113,3.83754 10.85475,9.21009 5.15327,5.37256 9.64867,11.62226 12.28013,-13.7055 24.45061,-25.76633 12.28012,-12.17048 23.57345,-21.27094 11.29333,-9.10045 21.27094,-14.36336 10.08724,-5.37255 18.2009,-5.37255 z m -84.09694,71.81681 q 5.15327,7.89436 9.42939,16.33695 4.27611,8.44259 7.67507,16.55624 3.50861,8.11365 6.14007,15.4598 2.7411,7.2365 4.71469,12.82835 12.82834,-27.95922 27.41099,-54.82199 14.58265,-26.86278 32.78355,-53.06769 2.96039,-4.38576 4.16648,-7.2365 1.31572,-2.96039 1.31572,-5.04363 0,-3.5086 -2.96038,-5.26291 -2.96039,-1.86394 -6.79793,-1.86394 -12.17048,0 -33.22213,16.66588 -20.942,16.55624 -50.65552,49.44944 z m -70.61072,1.86394 q 0,5.81113 2.19288,11.07405 2.19288,5.15326 6.03042,9.9776 3.83754,4.71469 9.10045,8.9908 5.26291,4.16648 11.40297,7.89437 8.2233,-9.9776 16.77553,-20.06485 8.55223,-10.08724 17.32375,-19.9552 -3.83754,-5.04363 -8.00401,-9.31974 -4.05683,-4.38576 -8.55223,-7.56544 -4.4954,-3.17967 -9.31974,-4.93397 -4.82433,-1.75431 -9.9776,-1.75431 -5.81113,0 -10.74511,1.97359 -4.93398,1.9736 -8.55223,5.4822 -3.61825,3.39897 -5.70149,8.11366 -1.97359,4.60504 -1.97359,10.08724 z m 93.7456,62.49707 q -1.53501,-4.93398 -4.16647,-11.95119 -2.52181,-7.01722 -6.03042,-15.02123 -3.39896,-8.11365 -7.78472,-16.55624 -4.27611,-8.44258 -9.42938,-16.11766 -7.56544,8.55223 -15.67909,17.98161 -8.11366,9.42938 -16.88517,20.06485 7.67507,4.27611 16.00802,7.78472 8.44258,3.39896 16.33695,6.14006 8.00401,2.63146 15.13087,4.60505 7.2365,1.97359 12.49941,3.07003 z"
         style="font-style:normal;font-variant:normal;font-weight:normal;font-stretch:normal;font-family:Parisienne;-inkscape-font-specification:Parisienne;fill:#ffffff"
         id="path3403" />
      <path
         d="m 373.31972,271.75652 q -5.04362,5.92077 -9.9776,10.9644 -4.93398,4.93397 -9.86796,8.55223 -4.82434,3.5086 -9.64867,5.48219 -4.82434,2.08324 -9.75832,2.08324 -4.16647,0 -7.56543,-1.53502 -3.28932,-1.42537 -5.70149,-4.05682 -2.52181,-2.7411 -3.83754,-6.57864 -1.31572,-3.94718 -1.31572,-8.77152 0,-7.56543 3.39896,-15.56945 3.28932,-8.00401 8.33294,-15.56944 5.15327,-7.56544 11.29333,-14.36336 6.24971,-6.79793 11.84155,-12.06084 l 4.71469,3.28932 q -3.94718,5.81113 -8.88116,13.15728 -4.82434,7.34614 -9.21009,15.24051 -4.27612,7.78472 -7.23651,15.67909 -2.96038,7.78472 -2.96038,14.47301 0,4.4954 1.64465,7.67507 1.75431,3.17968 6.57864,3.17968 5.26291,0 11.51262,-4.16647 6.35935,-4.16647 12.93799,-10.85476 6.68828,-6.68828 13.26692,-15.02122 6.68829,-8.44259 12.60906,-16.99482 5.92078,-8.55223 10.74511,-16.33695 4.93398,-7.78472 8.00401,-13.26692 l 8.00401,3.94718 q -6.35935,12.49941 -12.28012,23.35417 -5.81113,10.74511 -10.41618,19.40698 -4.4954,8.55223 -7.2365,14.91158 -2.63146,6.35936 -2.63146,10.08725 0,1.53502 0.65786,2.52181 0.65787,0.9868 2.08324,0.9868 4.05683,0.10964 8.88116,-3.50861 4.93398,-3.61825 9.86796,-9.10045 5.04362,-5.4822 9.75831,-11.95119 4.82434,-6.57864 8.66188,-12.28013 l 3.94718,3.07003 q -0.65786,1.09644 -2.7411,4.4954 -2.08323,3.39897 -5.15326,7.78473 -3.07004,4.38576 -7.01722,9.21009 -3.94718,4.82434 -8.33294,8.88116 -4.38576,3.94719 -9.10045,6.57864 -4.71469,2.52181 -9.31974,2.52181 -2.85074,0 -5.15327,-0.98679 -2.19288,-0.9868 -3.72789,-2.63146 -1.53502,-1.64466 -2.41217,-3.83754 -0.87715,-2.19288 -0.87715,-4.60504 0,-2.85075 0.87715,-6.24971 0.9868,-3.39896 2.7411,-7.2365 z"
         style="font-style:normal;font-variant:normal;font-weight:normal;font-stretch:normal;font-family:Parisienne;-inkscape-font-specification:Parisienne;fill:#ffffff"
         id="path3405" />
      <path
         d="m 541.84251,151.58671 q -1.20609,1.75431 -3.94718,5.81114 -2.7411,4.05682 -6.35936,9.64867 -3.61825,5.59184 -7.89436,12.38977 -4.16647,6.79792 -8.44259,14.03442 -4.16647,7.23651 -8.2233,14.6923 -3.94718,7.34615 -7.01721,14.14407 -4.82434,10.52582 -8.00401,18.85877 -3.07003,8.2233 -4.93398,14.69229 -1.75431,6.46899 -2.52181,11.29333 -0.65787,4.71469 -0.65787,8.11365 0,6.24971 1.86395,8.66188 1.97359,2.41217 5.26291,2.41217 3.39896,0 6.469,-1.75431 3.17967,-1.7543 6.03042,-4.4954 2.96038,-2.7411 5.48219,-6.24971 2.63146,-3.5086 4.82434,-7.01721 2.30252,-3.50861 4.16647,-6.68828 1.86395,-3.17968 3.28932,-5.37256 l 3.94718,3.07003 q -1.20608,1.97359 -3.07003,5.26291 -1.7543,3.17968 -4.05683,7.01722 -2.30252,3.83754 -5.26291,7.78472 -2.96038,3.83754 -6.57864,7.01721 -3.5086,3.17968 -7.89436,5.26292 -4.27612,1.97359 -9.31974,1.97359 -2.41217,0 -5.15327,-0.65787 -2.63145,-0.65786 -4.93398,-2.30252 -2.30252,-1.64466 -4.05682,-4.4954 -1.75431,-2.96039 -2.30253,-7.45579 -8.2233,8.88116 -16.00802,13.48621 -7.78472,4.4954 -14.69229,4.4954 -3.50861,0 -7.78472,-1.20608 -4.16648,-1.20609 -7.89437,-4.16648 -3.7279,-2.96038 -6.24971,-7.78472 -2.52181,-4.93398 -2.52181,-12.17048 0,-8.11366 2.52181,-15.4598 2.52181,-7.34615 6.79793,-13.59586 4.27611,-6.35935 9.75831,-11.40297 5.59185,-5.15327 11.62226,-8.66187 6.03042,-3.61826 12.06084,-5.59185 6.14007,-1.97359 11.51262,-1.97359 7.12686,0 11.18369,1.75431 4.05682,1.7543 6.14006,3.5086 1.53502,-3.07003 4.16647,-7.78472 2.63146,-4.82434 6.14006,-10.63547 3.50861,-5.92077 7.78473,-12.49941 4.27611,-6.68828 9.10045,-13.37657 4.82433,-6.79792 10.08724,-13.37656 5.37256,-6.57864 10.85476,-12.28013 l 4.71469,3.07003 z m -69.40464,117.42871 q 0.54822,-8.11366 3.72789,-19.07805 3.28932,-11.07405 9.97761,-25.43741 -1.53502,-2.30252 -4.38576,-3.50861 -2.7411,-1.31572 -6.24971,-1.31572 -5.37255,0 -10.9644,2.19288 -5.4822,2.19288 -10.63546,5.92077 -5.04363,3.7279 -9.53903,8.88116 -4.4954,5.04363 -7.89437,10.85476 -3.28932,5.81113 -5.26291,12.17048 -1.86395,6.24971 -1.86395,12.38977 0,8.2233 3.39897,12.82834 3.50861,4.60505 9.31974,4.60505 2.7411,0 6.03041,-1.09644 3.28932,-1.09644 7.12686,-3.50861 3.94719,-2.52181 8.2233,-6.35935 4.27612,-3.94718 8.99081,-9.53902 z"
         style="font-style:normal;font-variant:normal;font-weight:normal;font-stretch:normal;font-family:Parisienne;-inkscape-font-specification:Parisienne;fill:#ffffff"
         id="path3407" />
      <path
         d="m 570.56925,198.40469 q 0,2.19288 -1.09644,4.60505 -1.09644,2.30252 -2.85074,4.16647 -1.64466,1.86395 -3.7279,3.07003 -2.08323,1.20609 -4.16647,1.20609 -1.86395,0 -2.85074,-1.31573 -0.9868,-1.42537 -0.9868,-3.39896 0,-1.75431 0.65787,-4.16647 0.65786,-2.41217 1.97359,-4.49541 1.31573,-2.19288 3.17967,-3.72789 1.86395,-1.53502 4.27612,-1.53502 2.30252,0 3.94718,1.7543 1.64466,1.75431 1.64466,3.83754 z m -20.50342,24.34097 q -1.42538,2.85074 -4.05683,7.56543 -2.52181,4.60505 -5.4822,10.19689 -2.96039,5.4822 -6.03042,11.62226 -3.07003,6.03042 -5.59184,11.84155 -2.41217,5.70149 -3.94718,10.74511 -1.53502,5.04363 -1.53502,8.55224 0,3.17967 1.31573,4.38575 1.31572,1.09644 3.72789,1.09644 4.49541,0 8.77152,-2.96038 4.27612,-2.96039 8.44259,-7.67508 4.27611,-4.82434 8.33294,-10.9644 4.05683,-6.14006 8.11365,-12.38977 l 3.94719,3.07003 q -3.17968,5.70149 -7.2365,12.17048 -3.94719,6.469 -8.88117,12.06084 -4.93398,5.4822 -10.85475,9.10045 -5.92078,3.61825 -12.93799,3.61825 -6.57864,0 -10.08725,-3.94718 -3.5086,-3.94718 -3.5086,-10.19689 0,-7.34615 3.39896,-15.35016 3.39896,-8.00401 8.44259,-15.78873 5.15326,-7.89437 11.07404,-15.13087 6.03042,-7.2365 11.07404,-13.15728 l 3.50861,1.53502 z"
         style="font-style:normal;font-variant:normal;font-weight:normal;font-stretch:normal;font-family:Parisienne;-inkscape-font-specification:Parisienne;fill:#ffffff"
         id="path3409" />
      <path
         d="m 613.22074,271.75652 q -5.04363,5.92077 -9.97761,10.9644 -4.93398,4.93397 -9.86796,8.55223 -4.82433,3.5086 -9.64867,5.48219 -4.82433,2.08324 -9.75831,2.08324 -4.16647,0 -7.56543,-1.53502 -3.28932,-1.42537 -5.70149,-4.05682 -2.52181,-2.7411 -3.83754,-6.57864 -1.31573,-3.94718 -1.31573,-8.77152 0,-7.56543 3.39896,-15.56945 3.28932,-8.00401 8.33295,-15.56944 5.15326,-7.56544 11.29333,-14.36336 6.2497,-6.79793 11.84155,-12.06084 l 4.71469,3.28932 q -3.94718,5.81113 -8.88116,13.15728 -4.82434,7.34614 -9.2101,15.24051 -4.27611,7.78472 -7.2365,15.67909 -2.96039,7.78472 -2.96039,14.47301 0,4.4954 1.64466,7.67507 1.7543,3.17968 6.57864,3.17968 5.26291,0 11.51262,-4.16647 6.35935,-4.16647 12.93799,-10.85476 6.68828,-6.68828 13.26692,-15.02122 6.68828,-8.44259 12.60906,-16.99482 5.92077,-8.55223 10.74511,-16.33695 4.93398,-7.78472 8.00401,-13.26692 l 8.00401,3.94718 q -6.35935,12.49941 -12.28013,23.35417 -5.81113,10.74511 -10.41618,19.40698 -4.4954,8.55223 -7.2365,14.91158 -2.63145,6.35936 -2.63145,10.08725 0,1.53502 0.65786,2.52181 0.65786,0.9868 2.08324,0.9868 4.05682,0.10964 8.88116,-3.50861 4.93398,-3.61825 9.86796,-9.10045 5.04362,-5.4822 9.75831,-11.95119 4.82434,-6.57864 8.66188,-12.28013 l 3.94718,3.07003 q -0.65787,1.09644 -2.7411,4.4954 -2.08324,3.39897 -5.15327,7.78473 -3.07003,4.38576 -7.01721,9.21009 -3.94719,4.82434 -8.33295,8.88116 -4.38575,3.94719 -9.10045,6.57864 -4.71469,2.52181 -9.31973,2.52181 -2.85075,0 -5.15327,-0.98679 -2.19288,-0.9868 -3.7279,-2.63146 -1.53501,-1.64466 -2.41216,-3.83754 -0.87716,-2.19288 -0.87716,-4.60504 0,-2.85075 0.87716,-6.24971 0.98679,-3.39896 2.7411,-7.2365 z"
         style="font-style:normal;font-variant:normal;font-weight:normal;font-stretch:normal;font-family:Parisienne;-inkscape-font-specification:Parisienne;fill:#ffffff"
         id="path3411" />
      <path
         d="m 694.68619,209.58838 q -0.54822,0.9868 -1.42537,2.19288 -0.87715,1.09644 -1.75431,2.63146 -0.7675,1.42537 -1.42537,3.39896 -0.54822,1.97359 -0.54822,4.71469 0,2.30252 1.09644,6.24971 1.20609,3.94718 2.52181,9.10045 1.31573,5.04362 2.41217,11.07404 1.20608,5.92077 1.20608,12.28013 0,9.31973 -2.52181,16.44659 -2.52181,7.12686 -6.68828,12.17048 8.55223,-4.60504 16.77553,-13.15727 8.2233,-8.66188 16.55624,-21.9288 l 3.7279,3.28932 q -4.7147,7.78472 -10.74511,15.4598 -5.92078,7.56544 -13.04764,13.7055 -7.12686,6.03042 -15.35016,9.75831 -8.22329,3.83754 -17.43339,3.83754 -8.2233,0 -13.81514,-3.94718 -5.70149,-3.83754 -7.01721,-11.62226 l 3.94718,-0.76751 q 0,0.65786 0.65786,2.19288 0.54822,1.42537 1.86395,2.85074 1.31573,1.42537 3.61825,2.52181 2.19288,1.09644 5.4822,1.09644 4.38576,0 7.78472,-1.97359 3.39897,-2.08323 5.92078,-5.37255 2.52181,-3.28932 4.27611,-7.45579 1.75431,-4.27612 2.7411,-8.77152 1.09644,-4.49541 1.53502,-8.77152 0.43857,-4.27612 0.43857,-7.78472 0,-3.50861 -0.32893,-7.78473 -0.21929,-4.27611 -0.54822,-8.11365 -0.32893,-3.94718 -0.65786,-6.79793 -0.21929,-2.96039 -0.21929,-3.83754 l 0,-0.21928 q -1.42537,1.53501 -3.39896,4.4954 -1.97359,2.96039 -4.27612,6.46899 -2.19288,3.50861 -4.4954,7.12686 -2.19288,3.61825 -4.05683,6.57864 -1.7543,2.96039 -2.96039,4.93398 -1.09644,1.86395 -1.09644,1.97359 l -3.94718,-3.07003 q 0.10964,-0.10964 2.7411,-4.71469 2.63146,-4.60505 6.90757,-11.62226 4.38576,-7.12686 9.86796,-15.67909 5.4822,-8.66188 11.29333,-16.77553 l 4.38576,3.61825 0,0 z"
         style="font-style:normal;font-variant:normal;font-weight:normal;font-stretch:normal;font-family:Parisienne;-inkscape-font-specification:Parisienne;fill:#ffffff"
         id="path3413" />
    </g>
    <path
       transform="matrix(0.99969302,-0.02477629,0.02477629,0.99969302,0,0)"
       style="opacity:1;fill:#ffffff;fill-opacity:1;stroke:#ffffff;stroke-width:0;stroke-linecap:round;stroke-linejoin:round;stroke-miterlimit:4;stroke-dasharray:none;stroke-dashoffset:0;stroke-opacity:1"
       d="m 288.67557,287.31726 23.4374,0 0,5.63686 -23.4374,0 z"
       id="rect3221" />
  </g>
</svg>
