<?xml version="1.0" encoding="UTF-8" standalone="no"?>
<!DOCTYPE svg PUBLIC "-//W3C//DTD SVG 1.1//EN" "http://www.w3.org/Graphics/SVG/1.1/DTD/svg11.dtd">
<svg width="100%" height="100%" viewBox="0 0 1462 449" version="1.1" xmlns="http://www.w3.org/2000/svg" xmlns:xlink="http://www.w3.org/1999/xlink" xml:space="preserve" style="fill-rule:evenodd;clip-rule:evenodd;stroke-linejoin:round;stroke-miterlimit:1.41421;">
    <g transform="matrix(1,0,0,1,-155,-2551)">
        <g id="g3241.-2.-3" transform="matrix(1,0,0,1,775.381,623.571)">
            <g transform="matrix(1.99993,0,0,1.99993,-1599.16,-2558.16)">
                <path d="M759.314,2407.14C751.518,2412.95 745.867,2414.74 743.918,2415.71C740.179,2417.56 727.833,2420.54 723.27,2420.48C721.004,2425.74 715.436,2438.76 715.436,2438.9L700.355,2438.78L708.945,2419.23C692.03,2416.84 677.41,2413.51 662.44,2407.05C656.905,2404.66 649.354,2400.11 644.238,2397.34C639.486,2402.82 634.333,2408.23 628.778,2413.56C623.222,2418.83 617.265,2423.58 610.906,2427.82C604.546,2431.98 597.785,2435.35 590.622,2437.91C583.531,2440.54 576.039,2441.85 568.145,2441.85C561.127,2441.85 554.11,2440.79 547.093,2438.67C540.149,2436.63 533.899,2433.63 528.344,2429.68C522.862,2425.66 518.403,2420.8 514.967,2415.1C511.532,2409.32 509.814,2402.78 509.814,2395.47C509.814,2389.7 510.91,2384.62 513.103,2380.23C515.223,2375.85 518.147,2372.19 521.875,2369.27C525.676,2366.34 530.098,2364.15 535.142,2362.69C540.259,2361.15 545.741,2360.39 551.588,2360.39C556.047,2360.39 560.652,2360.83 565.404,2361.7C570.228,2362.58 574.906,2364.04 579.438,2366.09C583.97,2368.14 588.246,2370.84 592.266,2374.2C596.287,2377.56 600.563,2383.98 601.769,2388.27L598.155,2389.94C598.082,2389.79 597.237,2389.08 596.433,2388.13C595.702,2387.1 594.569,2385.9 593.034,2384.51C591.572,2383.05 589.671,2381.51 587.332,2379.9C584.993,2378.3 582.179,2376.83 578.89,2375.52C575.674,2374.13 571.909,2373 567.596,2372.12C563.357,2371.17 558.533,2370.69 553.123,2370.69C547.641,2370.69 542.853,2371.64 538.76,2373.54C534.667,2375.37 531.231,2377.75 528.454,2380.67C525.749,2383.52 523.702,2386.74 522.313,2390.32C520.998,2393.9 520.34,2397.37 520.34,2400.74C520.34,2404.68 521.034,2408.3 522.423,2411.59C523.812,2414.81 525.676,2417.73 528.015,2420.36C530.427,2422.99 533.205,2425.3 536.348,2427.27C539.564,2429.17 542.927,2430.78 546.435,2432.09C550.017,2433.41 553.635,2434.4 557.29,2435.05C561.018,2435.71 564.636,2436.04 568.145,2436.04C575.381,2436.04 582.325,2434.87 588.977,2432.53C595.629,2430.12 601.915,2426.98 607.836,2423.1C613.757,2419.16 619.312,2414.7 624.502,2409.73C629.765,2404.76 634.625,2399.68 639.084,2394.49C634.114,2391.49 629.509,2388.27 625.269,2384.84C621.103,2381.33 617.484,2377.6 614.414,2373.65C611.344,2369.63 608.932,2365.36 607.178,2360.83C605.497,2356.22 604.656,2351.36 604.656,2346.24C604.656,2342 605.424,2338.02 606.959,2334.29C608.567,2330.56 610.723,2327.31 613.428,2324.53C616.205,2321.68 619.458,2319.45 623.186,2317.85C626.987,2316.16 631.044,2315.32 635.356,2315.32C640.181,2315.32 644.749,2316.09 649.062,2317.62C653.375,2319.09 657.468,2321.13 661.342,2323.76C665.216,2326.32 668.834,2329.39 672.197,2332.98C675.632,2336.56 678.849,2340.43 681.845,2344.6C690.032,2335.46 698.182,2326.87 706.296,2318.83C714.483,2310.72 722.341,2303.63 729.87,2297.56C737.398,2291.49 744.489,2286.71 751.14,2283.2C757.865,2279.62 763.932,2277.83 769.341,2277.83C771.461,2277.83 773.508,2278.19 775.481,2278.92C777.528,2279.58 779.319,2280.57 780.854,2281.88C782.462,2283.12 783.741,2284.7 784.692,2286.6C785.642,2288.42 786.117,2290.51 786.117,2292.85C786.117,2297.38 784.655,2302.53 781.731,2308.31C778.807,2314.08 775.006,2320.84 770.328,2328.59C765.285,2336.85 760.533,2345.11 756.074,2353.37C751.616,2361.56 747.449,2369.49 743.575,2377.16C739.774,2384.76 736.265,2391.96 733.049,2398.76C729.906,2405.49 728.495,2408.07 726.156,2413.41C730.21,2413.55 736.394,2412.18 741.434,2409.55C752.77,2403.63 764.878,2394.59 772.238,2384C778.865,2374.46 788.69,2361.77 796.194,2354.84L807.026,2354.84C802.097,2359.66 792.889,2372.79 789.437,2377.57C786.058,2382.36 782.819,2387.33 779.72,2392.49C776.697,2397.59 774.11,2402.73 771.961,2407.92C769.814,2413.04 768.666,2417.83 768.516,2422.29C768.415,2425.28 768.877,2427.86 769.902,2430.01C770.999,2432.17 773.155,2433.3 776.37,2433.41C779.876,2433.53 783.758,2432.27 788.016,2429.63C792.346,2427 796.778,2423.53 801.311,2419.22C805.917,2414.91 810.505,2410.06 815.075,2404.65C819.721,2399.18 824.112,2393.66 828.248,2388.09C832.385,2382.53 836.148,2377.2 839.536,2372.12C842.998,2367.05 848.502,2358.42 850.671,2354.84L861.104,2354.78C856.586,2362.97 846.979,2379.18 842.791,2386.28C838.678,2393.31 834.991,2399.66 831.728,2405.32C828.541,2410.92 825.964,2415.81 823.995,2419.98C822.099,2424.16 821.109,2427.49 821.026,2429.98C820.991,2431 821.182,2431.85 821.599,2432.52C822.015,2433.19 822.698,2433.54 823.647,2433.58C826.348,2433.74 829.346,2432.67 832.641,2430.37C836.01,2428.07 839.399,2425.14 842.81,2421.6C846.293,2418.06 849.678,2414.19 852.964,2409.99C856.326,2405.71 863.792,2391.82 871.958,2380.56C874.977,2376.4 878.604,2372.56 882.484,2369.28C886.441,2365.94 890.506,2363.18 894.68,2360.99C898.858,2358.74 902.998,2357.05 907.101,2355.95C911.276,2354.84 915.151,2354.41 918.725,2354.64C923.466,2354.95 927.043,2356.02 929.763,2357.21C932.89,2358.58 936.656,2361.75 936.656,2361.75C936.656,2361.75 950.979,2338.45 961.852,2324.35C970.41,2313.24 983.713,2296.07 987.892,2291.55L999.806,2291.45C998.923,2292.62 979.097,2318.96 972.013,2329.01C965.413,2338.36 954.171,2355.05 947.139,2366.95C940.685,2377.88 934.771,2387.48 929.747,2400.41C925.84,2410.47 924.906,2417.71 925.082,2420.55C925.353,2424.9 926.709,2427.75 927.838,2429.51C929.039,2431.28 930.734,2432.23 932.922,2432.38C935.183,2432.53 937.375,2432.06 939.498,2430.97C941.694,2429.89 943.804,2428.45 945.827,2426.67C947.922,2424.89 949.797,2422.76 951.729,2420.5C959.689,2411.19 974.074,2391.81 975.797,2389.54C995.002,2364.22 1003.41,2355.55 1007.26,2352.94L1011.88,2355.37C1010.48,2358.03 1005.17,2365.37 1002.4,2368.91C999.427,2372.73 991.285,2384.52 986.981,2391.84C978.959,2405.5 976.489,2411.76 975.071,2416.22C973.812,2420.18 974.032,2423.27 974.348,2425.81C974.627,2428.06 975.384,2429.72 976.465,2430.58C977.547,2431.36 979.08,2431.76 981.063,2431.76C984.76,2431.76 988.366,2430.7 991.882,2428.59C995.398,2426.48 998.869,2423.74 1002.3,2420.38C1005.81,2416.93 1009.24,2413.03 1012.57,2408.64C1015.91,2404.26 1026.03,2389.69 1028.02,2386.91C1034.38,2378.03 1045.72,2362.56 1054.07,2354.84L1064.9,2354.84C1059.98,2359.66 1050.77,2372.79 1047.32,2377.57C1043.94,2382.36 1040.7,2387.33 1037.6,2392.49C1034.58,2397.59 1031.99,2402.73 1029.84,2407.92C1027.69,2413.04 1026.54,2417.83 1026.39,2422.29C1026.29,2425.28 1026.76,2427.86 1027.78,2430.01C1028.88,2432.17 1031.03,2433.3 1034.25,2433.41C1037.76,2433.53 1041.64,2432.27 1045.89,2429.63C1050.22,2427 1054.66,2423.53 1059.19,2419.22C1063.8,2414.91 1068.38,2410.06 1072.95,2404.65C1077.6,2399.18 1081.99,2393.66 1086.13,2388.09C1090.26,2382.53 1094.03,2377.2 1097.41,2372.12C1100.88,2367.05 1106.38,2358.42 1108.55,2354.84L1119.08,2354.74C1114.56,2362.93 1104.86,2379.18 1100.67,2386.28C1096.56,2393.31 1092.87,2399.66 1089.61,2405.32C1086.42,2410.92 1083.84,2415.81 1081.87,2419.98C1079.98,2424.16 1078.99,2427.49 1078.9,2429.98C1078.87,2431 1079.06,2431.85 1079.48,2432.52C1079.89,2433.19 1080.58,2433.54 1081.53,2433.58C1084.23,2433.74 1087.22,2432.67 1090.52,2430.37C1093.89,2428.07 1097.55,2424.79 1100.69,2421.6C1115.76,2406.31 1131.63,2387.6 1141.46,2373.33C1145.02,2368.17 1146.66,2365.18 1149.41,2361.2C1155.15,2352.88 1158.29,2346.46 1161.42,2344.42L1166.09,2348.04C1165.7,2348.7 1165.19,2349.43 1164.57,2350.23C1163.95,2350.96 1163.33,2351.84 1162.71,2352.87C1162.16,2353.82 1161.66,2354.95 1161.19,2356.26C1160.8,2357.58 1160.61,2359.15 1160.61,2360.98C1160.61,2362.51 1161,2364.6 1161.77,2367.23C1162.63,2369.86 1163.52,2372.89 1164.46,2376.33C1165.39,2379.69 1166.25,2383.38 1167.02,2387.4C1167.88,2391.35 1168.31,2395.44 1168.31,2399.68C1168.31,2405.9 1167.41,2411.38 1165.62,2416.13C1163.83,2420.88 1161.46,2424.94 1158.51,2428.3C1164.57,2425.23 1170.52,2420.84 1176.36,2415.14C1182.19,2409.37 1188.06,2402.06 1193.97,2393.21L1197.94,2396.5C1194.59,2401.69 1190.78,2406.85 1186.5,2411.96C1182.31,2417.01 1177.68,2421.58 1172.62,2425.67C1167.57,2429.69 1162.12,2432.94 1156.29,2435.43C1150.46,2437.99 1144.28,2439.26 1137.74,2439.26C1131.91,2439.26 1127.01,2437.95 1123.04,2435.32C1119,2432.76 1116.51,2428.89 1115.58,2423.7L1119.78,2422.93C1119.78,2423.37 1120.01,2424.1 1120.48,2425.12C1120.87,2426.07 1121.53,2427.02 1122.46,2427.97C1123.39,2428.92 1124.68,2429.76 1126.31,2430.49C1127.87,2431.22 1129.81,2431.59 1132.14,2431.59C1135.25,2431.59 1138.01,2430.93 1140.42,2429.62C1142.84,2428.23 1144.94,2426.44 1146.73,2424.24C1148.51,2422.05 1150.03,2419.57 1151.27,2416.79C1152.52,2413.94 1153.49,2411.01 1154.19,2408.02C1154.97,2405.02 1155.51,2402.1 1155.82,2399.24C1156.13,2396.39 1156.29,2393.8 1156.29,2391.46C1156.29,2389.12 1156.17,2386.53 1155.94,2383.68C1155.79,2380.82 1155.59,2378.12 1155.36,2375.56C1155.12,2372.93 1154.89,2370.66 1154.66,2368.76C1154.5,2366.79 1154.42,2365.51 1154.42,2364.93L1154.42,2364.71C1153.41,2365.73 1147.89,2373.33 1146.26,2375.67C1133.98,2393.3 1120.74,2409.19 1108.13,2422.18C1105.3,2425.1 1102.52,2428.17 1099.5,2430.78C1096.49,2433.31 1093.39,2435.4 1090.19,2437.05C1086.99,2438.62 1083.86,2439.36 1080.79,2439.26C1078.89,2439.19 1077.18,2438.8 1075.67,2438.1C1074.23,2437.39 1073.02,2436.47 1072.03,2435.34C1071.05,2434.21 1070.29,2432.9 1069.75,2431.42C1069.21,2429.94 1068.97,2428.4 1069.03,2426.79C1069.09,2424.89 1069.45,2422.82 1070.12,2420.58C1070.85,2418.33 1071.84,2415.95 1073.1,2413.43C1069.61,2417.27 1066.16,2420.81 1062.76,2424.06C1059.36,2427.24 1055.98,2429.97 1052.61,2432.27C1049.32,2434.5 1046.04,2436.22 1042.78,2437.43C1039.52,2438.71 1036.25,2439.29 1032.96,2439.18C1030.18,2439.09 1027.68,2438.49 1025.45,2437.39C1023.29,2436.37 1021.43,2434.95 1019.89,2433.15C1018.27,2431.26 1017.06,2429.03 1016.27,2426.44C1015.48,2423.78 1015.14,2420.85 1015.25,2417.63C1015.27,2417.07 1015.3,2416.51 1015.35,2415.94C1012.95,2418.97 1010.35,2421.86 1007.57,2424.6C1003.51,2428.51 999.049,2431.76 994.181,2434.34C989.312,2436.92 983.993,2438.21 978.223,2438.21C972.814,2438.21 968.667,2436.8 965.782,2433.98C962.897,2431.17 961.455,2427.53 961.455,2423.07C961.455,2420.9 961.696,2418.68 962.179,2416.42C959.903,2419.29 957.543,2422.23 955.278,2424.99C953.131,2427.54 950.782,2429.84 948.228,2431.89C945.747,2433.96 943,2435.62 939.987,2436.88C937.051,2438.06 933.906,2438.55 930.551,2438.32C928.946,2438.22 927.248,2437.88 925.454,2437.3C923.734,2436.72 922.146,2435.81 920.69,2434.56C919.235,2433.32 917.989,2431.66 916.953,2429.6C915.923,2427.45 915.329,2424.81 915.172,2421.65C909.292,2427.48 903.657,2431.83 898.266,2434.69C892.88,2437.48 887.89,2438.73 883.295,2438.42C880.961,2438.27 878.399,2437.68 875.61,2436.65C872.894,2435.62 870.365,2434 868.021,2431.77C865.678,2429.54 863.779,2426.69 862.324,2423.22C859.412,2416.09 860.743,2409.06 860.806,2408.43C859.412,2410.57 858.202,2412.38 857.573,2413.21C855.429,2416.07 852.988,2419.06 850.25,2422.18C847.512,2425.31 844.637,2428.17 841.624,2430.78C838.613,2433.31 835.507,2435.4 832.307,2437.05C829.109,2438.62 825.976,2439.36 822.908,2439.26C821.009,2439.19 819.303,2438.8 817.791,2438.1C816.352,2437.39 815.139,2436.47 814.153,2435.34C813.167,2434.21 812.407,2432.9 811.872,2431.42C811.336,2429.94 811.096,2428.4 811.15,2426.79C811.213,2424.89 811.576,2422.82 812.236,2420.58C812.97,2418.33 813.964,2415.95 815.219,2413.43C811.726,2417.27 808.279,2420.81 804.879,2424.06C801.481,2427.24 798.097,2429.97 794.729,2432.27C791.436,2434.5 788.16,2436.22 784.901,2437.43C781.64,2438.71 778.366,2439.29 775.079,2439.18C772.302,2439.09 769.799,2438.49 767.569,2437.39C765.409,2436.37 763.555,2434.95 762.007,2433.15C760.388,2431.26 759.183,2429.03 758.393,2426.44C757.605,2423.78 757.264,2420.85 757.372,2417.63C757.488,2414.19 758.136,2410.69 759.314,2407.14ZM914.515,2412.93C914.515,2412.93 915.516,2406.14 919.93,2395.01C923.465,2386.09 933.395,2367.86 933.395,2367.86C933.395,2367.86 930.558,2364.4 928.252,2363.45C926.361,2362.66 924.441,2361.81 922.107,2361.66C918.533,2361.42 914.835,2361.95 911.015,2363.23C907.267,2364.51 903.593,2366.34 899.993,2368.72C896.466,2371.09 893.088,2373.98 889.86,2377.37C886.637,2380.69 883.761,2384.3 881.232,2388.2C878.776,2392.11 876.745,2396.23 875.139,2400.58C873.611,2404.85 872.706,2409.13 872.422,2413.41C872.043,2419.14 872.878,2423.69 874.927,2427.05C877.048,2430.41 880.042,2432.22 883.908,2432.48C885.731,2432.6 887.762,2432.35 890.001,2431.73C892.239,2431.11 894.691,2430.04 897.355,2428.53C900.097,2426.95 902.979,2424.91 906,2422.42C909.026,2419.86 911.488,2417.26 914.515,2412.93ZM708.397,2413.09C707.374,2409.8 700.521,2392.37 698.182,2387.03C695.916,2381.62 693.322,2376.1 690.398,2370.47C687.547,2364.85 684.404,2359.47 680.968,2354.36C675.925,2360.06 670.698,2366.05 665.289,2372.34C659.88,2378.62 654.252,2385.31 648.404,2392.4C653.521,2395.25 660.217,2399.64 666.607,2402.23C679.474,2407.44 692.304,2410.74 708.397,2413.09ZM685.244,2349.64C688.68,2354.9 691.823,2360.35 694.674,2365.98C697.525,2371.61 700.083,2377.13 702.349,2382.53C704.688,2387.94 711.906,2406.18 713.221,2409.91C721.774,2391.27 730.893,2373.91 740.615,2356C750.336,2338.09 761.264,2320.4 773.398,2302.93C775.372,2300.01 776.761,2297.6 777.565,2295.7C778.442,2293.72 778.88,2292.04 778.88,2290.65C778.88,2288.31 777.894,2286.56 775.92,2285.39C773.946,2284.15 771.68,2283.53 769.122,2283.53C761.008,2283.53 749.934,2289.08 735.9,2300.19C721.939,2311.23 705.053,2327.71 685.244,2349.64L685.244,2349.64ZM614.634,2351.51C614.634,2355.38 615.365,2359.07 616.827,2362.58C618.288,2366.01 620.299,2369.34 622.857,2372.56C625.415,2375.7 628.449,2378.7 631.957,2381.55C635.466,2384.33 639.267,2386.96 643.36,2389.44C648.843,2382.79 654.434,2376.1 660.136,2369.38C665.837,2362.65 671.612,2356 677.46,2349.42C674.901,2346.06 672.233,2342.95 669.456,2340.1C666.751,2337.18 663.9,2334.66 660.903,2332.54C657.907,2330.42 654.8,2328.77 651.584,2327.6C648.367,2326.43 645.042,2325.85 641.606,2325.85C637.732,2325.85 634.15,2326.51 630.861,2327.82C627.572,2329.14 624.721,2330.97 622.309,2333.3C619.897,2335.57 617.996,2338.28 616.607,2341.42C615.292,2344.49 614.634,2347.85 614.634,2351.51L614.634,2351.51ZM1034.17,2322.43C1037.07,2324.87 1036.92,2329.63 1033.33,2333.91C1029.74,2338.19 1022.99,2340.98 1020.08,2338.54C1017.17,2336.1 1019.21,2329.35 1022.8,2325.08C1026.39,2320.8 1031.26,2319.99 1034.17,2322.43Z" style="fill:rgb(45,167,239);"/>
            </g>
        </g>
    </g>
</svg>
