<?xml version="1.0" encoding="UTF-8" standalone="no"?>
<!DOCTYPE svg PUBLIC "-//W3C//DTD SVG 1.1//EN" "http://www.w3.org/Graphics/SVG/1.1/DTD/svg11.dtd">
<svg width="100%" height="100%" viewBox="0 0 825 449" version="1.1" xmlns="http://www.w3.org/2000/svg" xmlns:xlink="http://www.w3.org/1999/xlink" xml:space="preserve" style="fill-rule:evenodd;clip-rule:evenodd;stroke-linejoin:round;stroke-miterlimit:1.41421;">
    <g transform="matrix(1,0,0,1,-1694,-2551)">
        <g id="g3241.-2.-3" transform="matrix(1,0,0,1,775.381,623.571)">
            <g transform="matrix(1.99999,0,0,1.99999,-1609.78,-2404.37)">
                <path d="M1544.72,2337.68C1542.72,2338.96 1540.65,2340.12 1538.51,2341.16C1537.67,2341.57 1536.81,2341.96 1535.95,2342.33C1535.2,2342.65 1529.32,2345.03 1527.9,2345.46C1526.15,2345.98 1524.38,2346.45 1522.61,2346.88C1520.82,2347.31 1519.01,2347.69 1517.2,2348.02C1515.78,2348.27 1514.35,2348.49 1512.91,2348.6C1512.35,2349.91 1511.8,2351.22 1511.25,2352.53C1509.54,2356.62 1506.04,2365.31 1506.04,2365.31L1486.12,2365.28L1493.86,2347.22C1493.28,2347.13 1488.02,2346.31 1485.97,2345.95C1481.98,2345.24 1478.01,2344.43 1474.07,2343.49C1467.73,2341.97 1461.49,2340.09 1455.39,2337.79C1454.08,2337.3 1452.77,2336.78 1451.47,2336.25C1450.78,2335.96 1450.09,2335.68 1449.4,2335.38C1448.24,2334.88 1447.09,2334.33 1445.95,2333.76C1444.83,2333.21 1443.73,2332.63 1442.62,2332.04C1439.47,2330.36 1436.36,2328.59 1433.23,2326.85L1433.09,2326.77C1432.79,2327.11 1432.5,2327.44 1432.2,2327.77C1431.9,2328.12 1431.59,2328.47 1431.28,2328.81C1430.34,2329.85 1429.4,2330.89 1428.44,2331.92C1426.51,2334 1424.53,2336.06 1422.53,2338.08C1421.33,2339.28 1420.13,2340.47 1418.91,2341.64C1418.2,2342.32 1417.49,2342.99 1416.76,2343.65C1413.44,2346.69 1409.98,2349.56 1406.38,2352.26C1405.11,2353.2 1403.83,2354.13 1402.53,2355.03C1401.92,2355.45 1401.32,2355.87 1400.71,2356.28C1399.79,2356.89 1398.86,2357.48 1397.92,2358.06C1395.95,2359.27 1393.94,2360.41 1391.89,2361.47C1388.32,2363.33 1384.65,2364.97 1380.88,2366.38C1380.54,2366.5 1380.2,2366.63 1379.87,2366.75C1379.52,2366.88 1379.18,2367.01 1378.84,2367.13C1378.26,2367.33 1377.67,2367.53 1377.08,2367.72C1375.32,2368.3 1373.53,2368.79 1371.73,2369.21C1365.48,2370.67 1359.02,2371.19 1352.62,2370.89C1348.58,2370.69 1344.56,2370.16 1340.61,2369.32C1339.23,2369.02 1337.86,2368.69 1336.5,2368.33C1335.82,2368.14 1335.13,2367.95 1334.46,2367.75C1333,2367.32 1331.56,2366.86 1330.13,2366.34C1327.33,2365.33 1324.6,2364.14 1321.96,2362.77C1320.26,2361.88 1318.6,2360.92 1316.99,2359.89C1316.51,2359.58 1316.04,2359.27 1315.58,2358.96C1315.3,2358.76 1315.01,2358.57 1314.73,2358.37C1314.36,2358.1 1314,2357.83 1313.63,2357.55C1312.92,2357.01 1312.23,2356.45 1311.55,2355.88C1308.6,2353.39 1305.92,2350.59 1303.59,2347.53C1302.86,2346.57 1302.16,2345.58 1301.49,2344.57C1301.12,2344.01 1300.77,2343.45 1300.42,2342.88C1299.95,2342.09 1299.51,2341.29 1299.09,2340.47C1297.54,2337.41 1296.4,2334.14 1295.69,2330.78C1295.12,2328.12 1294.82,2325.4 1294.75,2322.68C1294.7,2320.62 1294.77,2318.55 1295,2316.49C1295.4,2312.88 1296.3,2309.32 1297.78,2306C1299.26,2302.68 1302.14,2298.11 1305.42,2294.94C1306.25,2294.14 1310.02,2291.2 1311.06,2290.53C1313.4,2289.05 1315.89,2287.81 1318.48,2286.8C1319.36,2286.45 1324.98,2284.73 1326.29,2284.44C1328.79,2283.87 1331.33,2283.48 1333.88,2283.24C1335.86,2283.06 1337.85,2282.97 1339.84,2282.97C1344.8,2282.96 1351.57,2283.63 1356.73,2285.01C1360.15,2285.92 1364.54,2287.55 1368.12,2289.3C1372.02,2291.23 1376.35,2294.37 1379.01,2296.87C1381.68,2299.36 1384.73,2302.83 1387.35,2306.55C1389.38,2309.43 1391.68,2313.05 1391.68,2313.05L1388.29,2317.06C1388.29,2317.06 1382.9,2314.79 1380.43,2313.3C1375.73,2310.46 1369.09,2307 1365.03,2305.2C1361.8,2303.78 1357.24,2302.49 1354.71,2301.84C1347.69,2300.03 1339.17,2299.95 1332.67,2301.68C1330.4,2302.29 1326.84,2303.97 1325.63,2304.67C1324,2305.61 1322.45,2306.7 1321.04,2307.96C1320.19,2308.72 1319.39,2309.53 1318.65,2310.4C1317.84,2311.35 1317.09,2312.36 1316.41,2313.41C1315.81,2314.37 1315.27,2315.37 1314.8,2316.4C1314.59,2316.86 1314.38,2317.33 1314.2,2317.8C1314.1,2318.09 1314,2318.38 1313.9,2318.67C1313.71,2319.25 1313.53,2319.84 1313.37,2320.44C1312.94,2322.05 1312.65,2323.7 1312.55,2325.36C1312.47,2326.6 1312.49,2327.84 1312.59,2329.08C1312.78,2331.37 1313.27,2333.64 1314.13,2335.78C1314.39,2336.44 1314.69,2337.08 1315.01,2337.71C1315.57,2338.81 1316.2,2339.88 1316.9,2340.91C1317.36,2341.58 1317.84,2342.23 1318.36,2342.86C1318.54,2343.09 1318.73,2343.31 1318.91,2343.53C1319,2343.63 1319.09,2343.73 1319.18,2343.83C1320.75,2345.54 1322.49,2347.09 1324.36,2348.46C1325.11,2349.01 1325.87,2349.52 1326.65,2350.01C1326.92,2350.17 1327.18,2350.33 1327.45,2350.48C1328.22,2350.91 1328.98,2351.33 1329.76,2351.72C1331.22,2352.47 1332.71,2353.16 1334.23,2353.78C1334.84,2354.03 1335.44,2354.27 1336.06,2354.5C1336.68,2354.73 1337.31,2354.95 1337.95,2355.16C1339.41,2355.64 1340.9,2356.07 1342.4,2356.45C1343.67,2356.76 1344.95,2357.04 1346.23,2357.27C1347.21,2357.44 1348.18,2357.59 1349.16,2357.71C1351.26,2357.98 1353.36,2358.14 1355.47,2358.18C1356.62,2358.2 1357.78,2358.18 1358.93,2358.13C1361.11,2358.04 1363.29,2357.83 1365.45,2357.5C1368.81,2356.99 1372.11,2356.18 1375.32,2355.09C1376.2,2354.79 1377.08,2354.46 1377.94,2354.12C1379.22,2353.62 1380.48,2353.09 1381.73,2352.54C1384.61,2351.25 1387.42,2349.81 1390.14,2348.22C1390.96,2347.74 1391.77,2347.25 1392.58,2346.75C1393.02,2346.47 1393.46,2346.19 1393.9,2345.9C1394.34,2345.61 1394.78,2345.31 1395.22,2345.01C1396.11,2344.4 1396.98,2343.78 1397.85,2343.15C1400.64,2341.12 1403.34,2338.97 1405.93,2336.71C1406.91,2335.85 1407.88,2334.98 1408.83,2334.1C1409.23,2333.72 1409.63,2333.35 1410.03,2332.97C1411.15,2331.91 1412.27,2330.84 1413.38,2329.75C1416.11,2327.06 1418.76,2324.3 1421.34,2321.46C1421.1,2321.3 1420.86,2321.14 1420.62,2320.99C1419.86,2320.48 1419.11,2319.97 1418.36,2319.45C1416.73,2318.33 1415.13,2317.16 1413.57,2315.95C1413,2315.52 1412.44,2315.08 1411.89,2314.64C1411.71,2314.5 1411.21,2314.1 1411.04,2313.95C1410.82,2313.78 1410.61,2313.59 1410.4,2313.41C1410,2313.07 1409.6,2312.72 1409.2,2312.36C1407.84,2311.15 1406.52,2309.89 1405.25,2308.59C1403.89,2307.2 1402.58,2305.76 1401.33,2304.27C1400.74,2303.57 1400.16,2302.85 1399.6,2302.12C1398.83,2301.12 1398.1,2300.09 1397.4,2299.03C1395.85,2296.7 1394.47,2294.25 1393.29,2291.7C1392.94,2290.96 1392.62,2290.21 1392.31,2289.46C1392.14,2289.07 1391.99,2288.68 1391.84,2288.28C1391.72,2287.96 1391.61,2287.63 1391.49,2287.3C1391.25,2286.59 1391.03,2285.87 1390.83,2285.14C1390.1,2282.55 1389.6,2279.9 1389.34,2277.22C1389.21,2275.95 1389.14,2274.67 1389.12,2273.39C1389.08,2271.73 1389.14,2270.08 1389.32,2268.44C1389.64,2265.4 1390.37,2262.4 1391.48,2259.56C1391.56,2259.35 1391.65,2259.14 1391.73,2258.94C1391.85,2258.67 1391.97,2258.41 1392.09,2258.14C1392.29,2257.7 1392.5,2257.26 1392.72,2256.83C1393.47,2255.36 1394.31,2253.94 1395.24,2252.58C1396.92,2250.16 1398.89,2247.95 1401.12,2246.03C1402.86,2244.54 1404.75,2243.23 1406.75,2242.12C1407.42,2241.74 1408.11,2241.39 1408.81,2241.06C1409.24,2240.86 1409.69,2240.66 1410.13,2240.47C1412,2239.66 1413.95,2239.03 1415.94,2238.58C1417.94,2238.12 1419.99,2237.86 1422.04,2237.78C1423.45,2237.72 1424.87,2237.74 1426.27,2237.83C1428.89,2237.98 1431.49,2238.35 1434.03,2238.95C1435.02,2239.19 1436.01,2239.46 1436.98,2239.77C1437.49,2239.93 1438,2240.11 1438.51,2240.29C1439.22,2240.54 1439.93,2240.79 1440.63,2241.07C1442.06,2241.62 1443.45,2242.24 1444.83,2242.92C1446.41,2243.7 1447.96,2244.56 1449.47,2245.49C1450.19,2245.94 1450.89,2246.4 1451.6,2246.88C1452.17,2247.26 1452.74,2247.65 1453.3,2248.05C1454.43,2248.86 1455.55,2249.72 1456.63,2250.61C1458.15,2251.86 1459.62,2253.19 1461.03,2254.57C1461.48,2255.02 1461.93,2255.48 1462.38,2255.94C1462.7,2256.28 1463.02,2256.63 1463.35,2256.97C1465.01,2258.73 1470.2,2265.32 1470.2,2265.32C1470.78,2264.68 1471.53,2263.9 1472.12,2263.27C1472.63,2262.71 1473.15,2262.15 1473.66,2261.59C1475.45,2259.67 1477.25,2257.75 1479.07,2255.84C1482.36,2252.38 1485.7,2248.95 1489.08,2245.57C1491.11,2243.53 1493.16,2241.51 1495.24,2239.51C1498.1,2236.76 1501.01,2234.04 1503.96,2231.39C1507.2,2228.47 1510.51,2225.62 1513.89,2222.85C1515.43,2221.59 1516.98,2220.35 1518.55,2219.13C1521.6,2216.77 1524.73,2214.51 1527.95,2212.38C1530.86,2210.46 1533.85,2208.64 1536.92,2206.99C1538.1,2206.35 1539.29,2205.74 1540.5,2205.17C1542.86,2204.05 1545.28,2203.08 1547.78,2202.33C1549.85,2201.71 1551.96,2201.25 1554.11,2201C1557.46,2200.61 1561.42,2201.14 1562.39,2201.37C1563.36,2201.61 1565.35,2202.23 1566.86,2202.92C1569.29,2204.04 1570.86,2205.22 1572.56,2206.94C1573.28,2207.66 1573.92,2208.45 1574.49,2209.29C1574.93,2209.94 1575.32,2210.61 1575.67,2211.31C1575.87,2211.7 1576.05,2212.1 1576.22,2212.51C1576.82,2213.99 1577.18,2215.58 1577.33,2217.17C1577.4,2218.01 1577.42,2218.85 1577.39,2219.69C1577.37,2220.52 1577.3,2221.34 1577.19,2222.17C1576.97,2223.91 1576.59,2225.62 1576.09,2227.3C1575.52,2229.24 1574.8,2231.12 1573.98,2232.96C1573.21,2234.68 1572.35,2236.34 1571.48,2238C1570.64,2239.59 1569.78,2241.18 1568.9,2242.75C1567.58,2245.14 1566.22,2247.51 1564.84,2249.86C1563.73,2251.74 1562.62,2253.6 1561.49,2255.46C1560.71,2256.74 1559.93,2258 1559.16,2259.28C1558.69,2260.04 1558.23,2260.81 1557.76,2261.58C1555.32,2265.65 1552.93,2269.75 1550.6,2273.88C1549.3,2276.17 1548.02,2278.48 1546.75,2280.8C1546.2,2281.81 1545.64,2282.83 1545.08,2283.84C1541.36,2290.67 1537.73,2297.54 1534.19,2304.46C1533.72,2305.4 1533.25,2306.34 1532.77,2307.28C1530.52,2311.78 1528.28,2316.28 1526.09,2320.81C1525.25,2322.53 1524.42,2324.24 1523.6,2325.96C1523.23,2326.74 1522.86,2327.52 1522.49,2328.3C1522.16,2328.98 1521.83,2329.66 1521.5,2330.34C1520.81,2331.76 1520.12,2333.18 1519.43,2334.6C1519.11,2335.26 1518.39,2336.77 1518.39,2336.77C1518.6,2336.74 1528.18,2336.75 1537.82,2330.61C1540.15,2329.13 1548.58,2324.08 1555.66,2313.51C1555.86,2313.22 1564.18,2301.17 1566.62,2297.89C1568.32,2295.6 1570.53,2292.83 1572.31,2290.6C1575.4,2286.72 1580.11,2281.5 1580.11,2281.5L1598.38,2281.5C1598.24,2281.64 1594.61,2286.03 1593.54,2287.38C1592.31,2288.93 1591.11,2290.5 1589.94,2292.09C1588.41,2294.15 1586.91,2296.23 1585.43,2298.32C1583.83,2300.57 1578.71,2307.95 1577.91,2309.16C1576.4,2311.45 1574.93,2313.76 1573.49,2316.1C1572.63,2317.52 1571.77,2318.94 1570.94,2320.37C1570.13,2321.76 1569.36,2323.17 1568.61,2324.59C1568.18,2325.4 1567.76,2326.22 1567.35,2327.04C1566.75,2328.25 1566.15,2329.47 1565.59,2330.7C1564.87,2332.26 1564.2,2333.83 1563.55,2335.42C1563.05,2336.66 1562.58,2337.91 1562.18,2339.18C1561.41,2341.61 1560.84,2344.11 1560.61,2346.66C1560.47,2348.15 1560.43,2349.66 1560.62,2351.14C1560.74,2352.03 1560.94,2352.92 1561.26,2353.76C1561.32,2353.91 1561.38,2354.06 1561.45,2354.21C1561.49,2354.3 1561.53,2354.39 1561.58,2354.47C1561.69,2354.68 1561.85,2354.86 1562.03,2355C1562.22,2355.14 1562.43,2355.24 1562.64,2355.33C1562.95,2355.44 1563.27,2355.51 1563.58,2355.57C1564.14,2355.66 1564.72,2355.68 1565.29,2355.66C1565.86,2355.64 1566.43,2355.58 1566.99,2355.48C1568.25,2355.25 1569.48,2354.83 1570.65,2354.32C1571.51,2353.94 1572.34,2353.51 1573.15,2353.05C1573.51,2352.84 1573.86,2352.62 1574.22,2352.41C1574.93,2351.97 1575.63,2351.52 1576.32,2351.05C1577.72,2350.11 1579.07,2349.11 1580.39,2348.07C1581.83,2346.93 1583.23,2345.75 1584.59,2344.53C1585.35,2343.84 1586.1,2343.15 1586.84,2342.45C1587.83,2341.51 1588.82,2340.56 1589.79,2339.6C1591.15,2338.25 1592.48,2336.88 1593.79,2335.48C1594.85,2334.36 1595.9,2333.22 1596.93,2332.07C1598.37,2330.47 1599.78,2328.83 1601.17,2327.19C1602.95,2325.08 1604.7,2322.95 1606.43,2320.81C1608.12,2318.71 1609.8,2316.6 1611.44,2314.46C1614.13,2310.97 1616.74,2307.42 1619.31,2303.84C1620.35,2302.39 1621.38,2300.94 1622.41,2299.48C1622.96,2298.69 1625.88,2294.45 1626.47,2293.59C1628.06,2291.23 1635.68,2281.5 1635.68,2281.5L1652.54,2281.5C1652.54,2281.5 1649.8,2287.08 1648.33,2289.55C1647.24,2291.38 1646.14,2293.21 1645.04,2295.04C1641.53,2300.86 1632.85,2314.85 1627.62,2323.83C1622.79,2332.1 1616.43,2342.4 1613.62,2348.9C1613.27,2349.7 1612.94,2350.52 1612.65,2351.35C1612.35,2352.17 1612.09,2353.01 1611.88,2353.87C1611.75,2354.43 1611.58,2355.13 1611.57,2355.58C1611.56,2356.55 1612.04,2357.45 1613.22,2357.51C1613.9,2357.55 1615.07,2357.18 1615.95,2356.85C1617.3,2356.33 1618.55,2355.61 1619.74,2354.81C1620.05,2354.61 1620.36,2354.4 1620.66,2354.18C1621.29,2353.74 1621.9,2353.28 1622.52,2352.82C1623.27,2352.24 1624.02,2351.64 1624.76,2351.04C1625.89,2350.13 1627.02,2349.2 1628.14,2348.28C1628.5,2347.99 1628.86,2347.71 1629.21,2347.42C1630.74,2346.21 1632.28,2345.02 1633.86,2343.89C1636.25,2342.17 1638.25,2340.83 1640.88,2339.5C1643.97,2337.94 1645.22,2338 1645.22,2338L1647.03,2341.33C1647.03,2341.33 1645.12,2343.02 1641.53,2346.36C1639.94,2347.84 1632,2357.66 1623.38,2362.58C1622.87,2362.86 1620.92,2363.88 1620.45,2364.1C1618.17,2365.12 1615.73,2365.81 1613.24,2365.98C1611.54,2366.1 1609.81,2365.99 1608.16,2365.56C1607.61,2365.42 1607.08,2365.24 1606.56,2365.03C1606.31,2364.93 1606.05,2364.81 1605.81,2364.69C1605.48,2364.53 1605.17,2364.35 1604.86,2364.16C1603.93,2363.58 1603.09,2362.88 1602.35,2362.08C1601.33,2360.95 1600.54,2359.63 1599.99,2358.22C1599.57,2357.14 1599.29,2356.02 1599.17,2354.87C1599.12,2354.36 1599.1,2353.86 1599.11,2353.35C1599.12,2352.7 1599.18,2352.06 1599.26,2351.42C1599.47,2349.79 1599.86,2348.2 1600.34,2346.64C1600.41,2346.43 1600.49,2346.22 1600.57,2346.01C1600.86,2345.2 1601.18,2344.41 1601.52,2343.63C1602.04,2342.4 1602.62,2341.2 1603.23,2340.01L1603.35,2339.78C1603.35,2339.78 1603.45,2339.58 1603.47,2339.54C1603.04,2340.03 1602.62,2340.51 1602.19,2340.99C1600.72,2342.63 1599.24,2344.25 1597.73,2345.85C1596.39,2347.27 1595.02,2348.68 1593.64,2350.06L1593.32,2350.38C1592.6,2351.08 1591.87,2351.77 1591.13,2352.45C1589.41,2354.02 1587.63,2355.53 1585.79,2356.96C1584.97,2357.6 1584.13,2358.22 1583.28,2358.83C1581.89,2359.81 1580.45,2360.73 1578.97,2361.58C1577.76,2362.26 1576.53,2362.89 1575.27,2363.46C1574.66,2363.74 1574.04,2363.99 1573.42,2364.24C1572.95,2364.43 1572.49,2364.61 1572.02,2364.78C1571.04,2365.12 1570.04,2365.41 1569.03,2365.64C1567.2,2366.05 1565.33,2366.26 1563.45,2366.24C1561.71,2366.23 1559.96,2366.02 1558.27,2365.56C1557.58,2365.38 1556.9,2365.15 1556.25,2364.89C1555.94,2364.76 1555.64,2364.63 1555.34,2364.49C1555.05,2364.36 1554.77,2364.23 1554.49,2364.08C1553.93,2363.8 1553.39,2363.48 1552.87,2363.14C1551.45,2362.2 1550.18,2361.07 1549.08,2359.78C1547.76,2358.22 1546.71,2356.45 1545.93,2354.57C1545.72,2354.04 1545.52,2353.49 1545.34,2352.95C1545.14,2352.32 1544.98,2351.69 1544.83,2351.06C1544.48,2349.55 1544.27,2348.01 1544.17,2346.46C1544.01,2343.87 1544.15,2341.27 1544.55,2338.72C1544.6,2338.37 1544.66,2338.03 1544.72,2337.68ZM1561.55,2354.42C1561.56,2354.45 1561.56,2354.45 1561.57,2354.47C1561.56,2354.45 1561.55,2354.43 1561.54,2354.41C1561.54,2354.41 1561.54,2354.42 1561.55,2354.42ZM1468.27,2287.32C1466.67,2289.18 1465.08,2291.06 1463.49,2292.93C1463.16,2293.32 1462.84,2293.69 1462.51,2294.07C1461.52,2295.22 1460.53,2296.37 1459.55,2297.53C1458.25,2299.04 1456.96,2300.55 1455.67,2302.07C1454.94,2302.91 1454.22,2303.76 1453.49,2304.6C1452.93,2305.25 1452.38,2305.89 1451.83,2306.54C1450.99,2307.51 1450.15,2308.48 1449.31,2309.45C1448.74,2310.11 1448.18,2310.77 1447.62,2311.43C1446.75,2312.43 1445.88,2313.43 1445.01,2314.44C1444.28,2315.28 1443.55,2316.13 1442.82,2316.98L1442.28,2317.6C1443.3,2318.23 1444.31,2318.85 1445.32,2319.47C1446.72,2320.33 1448.13,2321.18 1449.56,2322C1450.49,2322.53 1451.44,2323.05 1452.39,2323.55C1453.14,2323.95 1453.91,2324.34 1454.68,2324.71C1455.9,2325.29 1457.16,2325.82 1458.41,2326.34C1460.66,2327.28 1462.93,2328.16 1465.22,2329C1466.7,2329.53 1468.18,2330.05 1469.67,2330.55C1472.34,2331.43 1475.02,2332.24 1477.73,2332.98C1482.85,2334.39 1493.53,2336.62 1493.53,2336.62C1491.65,2332.05 1489.69,2327.51 1487.71,2322.98C1487.02,2321.41 1486.34,2319.84 1485.65,2318.27C1485.22,2317.3 1484.78,2316.33 1484.34,2315.37C1484.17,2315 1483.99,2314.63 1483.82,2314.26C1483.67,2313.92 1483.52,2313.58 1483.36,2313.25C1482.98,2312.42 1482.59,2311.59 1482.2,2310.76C1481.32,2308.91 1480.41,2307.08 1479.47,2305.25C1478.97,2304.27 1478.46,2303.3 1477.95,2302.33C1477.29,2301.1 1476.64,2299.86 1475.96,2298.64C1475.68,2298.12 1475.4,2297.59 1475.12,2297.07C1474.65,2296.23 1474.19,2295.39 1473.71,2294.56C1473.15,2293.59 1472.59,2292.63 1472.01,2291.67C1471.61,2290.99 1471.2,2290.31 1470.79,2289.64C1470.19,2288.67 1469.58,2287.72 1468.96,2286.76L1468.87,2286.62C1468.67,2286.85 1468.47,2287.08 1468.27,2287.32ZM1559.95,2213.6C1559.11,2213.36 1557.37,2213.18 1555.94,2213.29C1554.78,2213.38 1553.63,2213.58 1552.51,2213.86C1551.38,2214.13 1550.27,2214.48 1549.18,2214.87C1547.59,2215.45 1546.04,2216.12 1544.52,2216.86C1542.45,2217.87 1540.45,2218.99 1538.49,2220.17C1535.55,2221.94 1532.7,2223.86 1529.92,2225.88C1527.14,2227.89 1524.42,2230 1521.75,2232.17C1520.5,2233.18 1519.25,2234.21 1518.02,2235.25C1513.38,2239.15 1508.87,2243.2 1504.44,2247.33C1500.25,2251.26 1496.14,2255.26 1492.08,2259.32C1490.4,2261 1488.74,2262.69 1487.08,2264.39C1485.5,2266 1478.17,2273.98 1476.45,2276.49C1476.72,2276.89 1481,2283.91 1482.09,2285.81C1483.67,2288.57 1485.16,2291.37 1486.62,2294.2C1488.2,2297.28 1489.72,2300.39 1491.17,2303.54C1491.57,2304.39 1491.95,2305.24 1492.34,2306.1C1492.56,2306.61 1492.78,2307.11 1493.01,2307.62C1493.28,2308.23 1493.55,2308.85 1493.82,2309.46C1494.71,2311.5 1495.58,2313.55 1496.45,2315.61C1498.19,2319.74 1499.9,2323.88 1501.6,2328.03L1501.63,2328.1C1501.84,2327.65 1502.04,2327.2 1502.25,2326.75C1502.63,2325.92 1503.02,2325.08 1503.4,2324.25C1504.74,2321.38 1506.09,2318.52 1507.46,2315.67C1508.96,2312.55 1510.49,2309.45 1512.02,2306.36C1512.3,2305.8 1512.59,2305.22 1512.87,2304.66C1513.43,2303.54 1514,2302.42 1514.57,2301.3C1516.14,2298.22 1517.72,2295.14 1519.31,2292.07C1520.35,2290.08 1521.38,2288.09 1522.43,2286.11C1523.15,2284.73 1523.89,2283.36 1524.62,2281.98C1525.37,2280.57 1526.12,2279.16 1526.88,2277.75C1528.26,2275.2 1529.66,2272.66 1531.08,2270.13C1531.76,2268.92 1532.44,2267.7 1533.14,2266.5C1535.36,2262.64 1537.64,2258.81 1539.95,2255C1540.81,2253.61 1541.66,2252.21 1542.53,2250.82C1543.05,2249.98 1543.57,2249.13 1544.1,2248.3C1546.04,2245.25 1548,2242.23 1549.99,2239.22C1550.36,2238.66 1550.74,2238.09 1551.11,2237.53C1551.67,2236.71 1552.22,2235.88 1552.78,2235.06C1554.06,2233.18 1555.34,2231.3 1556.64,2229.44C1557.24,2228.58 1557.85,2227.72 1558.45,2226.86C1558.68,2226.53 1558.91,2226.2 1559.13,2225.86C1559.68,2225.03 1560.22,2224.2 1560.73,2223.34C1561.17,2222.61 1561.59,2221.86 1561.97,2221.09C1562.1,2220.83 1562.22,2220.56 1562.34,2220.3C1562.59,2219.73 1562.83,2219.17 1563.02,2218.58C1563.08,2218.39 1563.27,2217.67 1563.3,2217.51C1563.51,2216.4 1562.82,2215.01 1562.14,2214.58C1561.46,2214.15 1560.72,2213.82 1559.95,2213.6ZM1404.84,2277.62C1404.84,2277.62 1404.85,2277.75 1404.86,2278.1C1404.87,2278.22 1404.88,2278.34 1404.88,2278.46C1404.88,2278.46 1404.93,2279.07 1404.95,2279.3C1405.02,2280.01 1405.11,2280.72 1405.23,2281.43C1405.47,2282.77 1405.81,2284.09 1406.24,2285.37C1406.51,2286.15 1406.81,2286.91 1407.14,2287.65C1407.34,2288.1 1407.56,2288.53 1407.78,2288.97C1408.24,2289.87 1408.73,2290.75 1409.26,2291.61C1409.82,2292.51 1410.4,2293.38 1411.02,2294.24C1411.5,2294.89 1411.99,2295.54 1412.5,2296.17C1412.72,2296.45 1412.95,2296.73 1413.18,2297C1413.73,2297.64 1414.3,2298.27 1414.89,2298.88C1416.02,2300.07 1417.2,2301.2 1418.43,2302.29C1419.61,2303.34 1420.84,2304.34 1422.09,2305.31C1422.41,2305.55 1422.74,2305.79 1423.06,2306.02C1423.95,2306.67 1424.85,2307.3 1425.76,2307.92C1427.4,2309.03 1429.06,2310.1 1430.74,2311.13L1430.79,2311.16C1431.54,2310.21 1432.29,2309.26 1433.04,2308.31C1433.72,2307.46 1434.4,2306.62 1435.08,2305.77C1436.45,2304.07 1437.82,2302.36 1439.19,2300.66C1440.22,2299.38 1441.26,2298.1 1442.3,2296.83C1443.35,2295.56 1444.41,2294.28 1445.46,2293.01C1446.52,2291.73 1447.58,2290.45 1448.64,2289.18C1449.02,2288.71 1449.41,2288.25 1449.8,2287.79C1452.27,2284.88 1454.76,2281.99 1457.26,2279.1L1457.79,2278.48C1458.71,2277.45 1460.58,2275.34 1460.58,2275.34C1460.14,2274.78 1459.69,2274.24 1459.24,2273.69C1458.72,2273.06 1458.19,2272.43 1457.65,2271.81C1456.78,2270.79 1455.88,2269.8 1454.96,2268.82C1454.79,2268.64 1454.62,2268.45 1454.45,2268.27C1453.68,2267.43 1452.88,2266.61 1452.06,2265.82C1451.23,2265.01 1450.37,2264.24 1449.49,2263.5C1448.46,2262.63 1447.41,2261.8 1446.31,2261.03C1444.9,2260.03 1443.43,2259.13 1441.89,2258.34C1440.18,2257.45 1438.39,2256.7 1436.54,2256.15C1435.6,2255.87 1434.64,2255.64 1433.67,2255.47C1431.98,2255.18 1430.26,2255.05 1428.55,2255.08C1426.14,2255.12 1423.74,2255.46 1421.43,2256.15C1420.58,2256.41 1419.74,2256.72 1418.92,2257.06C1417.42,2257.7 1415.99,2258.48 1414.65,2259.41C1414.08,2259.81 1413.52,2260.24 1412.98,2260.69C1412.76,2260.88 1412.54,2261.07 1412.33,2261.27C1412.15,2261.43 1411.97,2261.58 1411.8,2261.75C1411.53,2262 1411.27,2262.26 1411.01,2262.53C1410.21,2263.36 1409.47,2264.26 1408.81,2265.22C1408.35,2265.88 1407.93,2266.57 1407.54,2267.28C1407.33,2267.66 1407.13,2268.05 1406.95,2268.44C1406.75,2268.86 1406.56,2269.29 1406.39,2269.73C1405.41,2272.24 1404.92,2274.93 1404.84,2277.62Z" style="fill:rgb(45,167,239);"/>
            </g>
        </g>
    </g>
</svg>
